<!--?xml version="1.0" encoding="utf-8"?-->
<!-- Generator: Adobe Illustrator 18.0.0, SVG Export Plug-In . SVG Version: 6.00 Build 0)  -->

<svg version="1.1" id="_x31_0" xmlns="http://www.w3.org/2000/svg" xmlns:xlink="http://www.w3.org/1999/xlink" x="0px" y="0px" viewBox="0 0 512 512" style="width: 64px; height: 64px; opacity: 1;" xml:space="preserve">
<style type="text/css">
	.st0{fill:#374149;}
</style>
<g>
	<path class="st0" d="M256,0C114.614,0,0,114.614,0,256s114.614,256,256,256s256-114.614,256-256S397.386,0,256,0z M405.566,268.879
		l-0.114,55.374L339,257.805l66.566-66.57V268.879z M308.438,257.805l-30.633,30.594c-5.805,5.84-13.586,9.047-21.805,9.047
		c-8.254,0-16-3.207-21.84-9.047L106.722,160.961c1.477-8.469,8.867-14.882,17.73-14.882h263.094c8.867,0,16.254,6.414,17.73,14.882
		L308.438,257.805z M106.438,324.207V191.274L173,257.805l-38.875,38.875L106.438,324.207z M107.446,353.918l80.836-80.835
		l30.598,30.598c9.91,9.91,23.102,15.39,37.121,15.39c14.019,0,27.176-5.481,37.121-15.39l30.598-30.598l80.836,80.835
		c-2.484,6.993-9.152,12.004-17.007,12.004H124.453C116.598,365.922,109.93,360.91,107.446,353.918z" style="fill: rgb(75, 75, 75);"></path>
</g>
</svg>
